<?xml version="1.0" standalone="no"?>
<!DOCTYPE svg PUBLIC "-//W3C//DTD SVG 20010904//EN"
 "http://www.w3.org/TR/2001/REC-SVG-20010904/DTD/svg10.dtd">
<svg version="1.0" xmlns="http://www.w3.org/2000/svg"
 width="300.000000pt" height="299.000000pt" viewBox="0 0 300.000000 299.000000"
 preserveAspectRatio="xMidYMid meet">
<metadata>
Created by potrace 1.10, written by Peter Selinger 2001-2011
</metadata>
<g transform="translate(0.000000,299.000000) scale(0.100000,-0.100000)"
fill="#000000" stroke="none">
<path d="M1975 2601 c-89 -23 -164 -88 -186 -160 -9 -29 -18 -41 -31 -41 -28
0 -89 -34 -120 -67 -40 -42 -68 -111 -68 -171 0 -60 15 -103 54 -149 20 -24
25 -38 20 -57 -20 -80 70 -180 179 -200 30 -6 37 -11 37 -31 0 -29 42 -80 84
-102 48 -25 134 -21 187 8 42 23 47 24 79 11 83 -34 217 10 265 86 17 27 26
31 63 32 l42 0 0 109 0 110 30 21 c70 50 102 153 76 243 -16 54 -69 117 -125
146 -11 7 -21 21 -21 32 0 27 -35 93 -63 120 -30 29 -97 57 -155 65 -35 4 -61
1 -100 -14 -47 -18 -57 -19 -86 -7 -42 18 -123 26 -161 16z m143 -49 c47 -18
50 -18 83 -1 50 26 132 24 195 -5 60 -28 99 -74 111 -133 7 -34 16 -47 57 -75
64 -43 87 -75 93 -131 8 -68 -3 -110 -42 -153 l-34 -39 -1 32 c0 51 -7 60
-107 131 -150 106 -134 101 -181 64 -22 -18 -44 -32 -49 -32 -20 0 -55 48 -49
67 4 13 -2 27 -19 43 -14 13 -25 33 -25 44 0 19 -82 116 -98 116 -17 0 -102
-97 -102 -116 0 -13 -12 -36 -26 -53 -20 -24 -23 -35 -15 -45 8 -9 3 -20 -19
-41 -34 -33 -37 -47 -14 -70 15 -15 15 -19 -2 -57 -16 -36 -16 -43 -3 -67 8
-14 28 -32 43 -40 26 -12 35 -11 78 7 l49 21 -3 -130 -3 -129 208 0 c114 0
207 -4 207 -8 0 -15 -44 -51 -82 -67 -48 -19 -107 -19 -157 1 -38 15 -41 15
-71 -7 -23 -18 -48 -24 -101 -27 -69 -4 -70 -4 -104 32 -19 20 -37 52 -41 71
-7 37 -8 37 -87 50 -75 12 -136 96 -123 169 5 26 2 37 -15 52 -56 49 -74 155
-40 230 20 44 83 102 119 109 12 3 33 7 46 10 18 4 25 13 30 45 7 46 52 102
105 130 47 25 127 25 189 2z m-35 -150 c16 -16 25 -35 22 -43 -3 -9 7 -27 24
-43 25 -24 28 -31 18 -47 -10 -16 -6 -24 22 -53 l34 -35 -23 -19 -24 -20 19
-42 19 -42 -23 -19 c-25 -21 -53 -18 -82 7 -21 19 -38 18 -84 -6 -48 -25 -57
-25 -86 -1 l-24 19 22 45 c19 39 20 47 8 63 -12 17 -11 22 12 46 20 21 24 33
20 56 -5 23 -1 35 19 53 14 13 22 29 19 38 -5 13 40 71 55 71 3 0 18 -13 33
-28z m360 -252 l106 -75 1 -142 0 -143 -100 0 -99 0 2 88 2 87 -77 3 -78 3 0
-91 0 -90 -65 0 -65 0 0 110 c0 106 1 110 19 100 77 -41 166 33 128 106 -14
27 -14 28 47 75 34 26 64 47 67 46 3 -1 53 -36 112 -77z m-121 -290 l-4 -70
-44 0 -44 0 0 70 0 70 48 0 47 0 -3 -70z"/>
<path d="M1000 2056 c-116 -33 -196 -87 -264 -177 -72 -96 -98 -160 -104 -259
-6 -105 9 -163 78 -300 51 -101 76 -198 64 -247 -4 -15 -35 -84 -69 -153 -35
-69 -76 -163 -93 -210 -30 -85 -58 -218 -48 -228 6 -5 6 -6 36 98 48 164 111
279 245 445 100 124 141 202 158 300 11 65 17 79 31 77 9 -2 42 2 73 8 61 11
116 52 127 95 5 19 14 23 74 28 80 7 132 26 185 68 l37 30 0 -63 c0 -35 -9
-95 -20 -133 -11 -38 -20 -86 -20 -105 0 -40 29 -108 53 -129 23 -18 21 -30
-8 -57 -19 -17 -25 -33 -25 -64 0 -29 -4 -40 -15 -40 -21 0 -31 -30 -14 -41
11 -8 8 -14 -13 -30 -21 -15 -28 -29 -28 -54 0 -57 -7 -65 -59 -65 -78 0 -137
26 -200 89 -31 31 -63 72 -70 89 -17 40 -48 40 -69 2 -21 -40 -11 -175 17
-233 98 -203 375 -320 684 -288 96 10 207 38 207 53 0 4 -12 2 -27 -4 -18 -8
-91 -12 -203 -12 -152 -1 -186 2 -260 22 -114 31 -213 85 -280 152 -72 73
-100 130 -100 205 l0 58 29 -39 c42 -57 69 -80 133 -109 68 -31 155 -43 187
-25 24 13 51 66 51 101 0 12 12 33 26 46 16 14 24 31 21 42 -2 10 2 26 9 36 8
10 14 33 14 51 0 19 6 34 14 37 8 3 22 17 31 31 17 25 16 27 -24 87 -48 72
-50 97 -19 195 20 65 22 87 16 239 0 11 3 43 7 71 19 132 -118 268 -312 309
-82 18 -202 18 -263 1z m307 -56 c126 -44 220 -134 229 -221 4 -34 3 -40 -5
-27 -19 29 -76 58 -198 99 -223 75 -244 80 -338 82 -79 0 -98 -3 -150 -27
l-60 -27 30 32 c41 43 100 79 165 101 76 25 239 19 327 -12z m-186 -126 c31
-7 74 -21 95 -30 21 -9 70 -25 107 -36 74 -20 167 -63 167 -77 0 -9 -73 -24
-166 -36 -87 -11 -117 -37 -206 -184 -39 -65 -76 -84 -64 -35 11 42 8 168 -4
213 -8 31 -16 41 -31 41 -19 0 -21 -4 -15 -37 14 -94 18 -154 12 -187 l-7 -36
-27 20 c-15 11 -44 23 -64 27 -32 5 -41 1 -68 -25 -17 -17 -30 -41 -30 -55 0
-26 -39 -127 -49 -127 -7 0 -24 34 -63 130 -26 63 -31 89 -31 160 -1 129 45
215 141 261 83 41 178 45 303 13z m419 -170 c0 -8 -6 -14 -13 -14 -8 0 -19
-12 -25 -26 -17 -37 -101 -72 -189 -78 -40 -3 -74 -2 -77 3 -3 5 5 20 17 33
20 21 35 26 103 30 83 6 160 30 149 48 -3 5 -4 14 0 20 8 13 35 1 35 -16z
m-320 -129 c0 -8 5 -15 11 -15 8 0 7 -5 -1 -15 -7 -9 -18 -14 -24 -12 -5 2
-17 -10 -26 -27 -8 -16 -21 -32 -29 -34 -10 -4 -8 6 8 29 12 19 27 46 33 62
11 29 28 37 28 12z m-275 -107 c35 -16 31 -29 -7 -27 -18 1 -43 -1 -55 -5 -24
-8 -28 0 -17 28 7 19 43 21 79 4z m23 -120 c-10 -76 -62 -185 -117 -248 l-40
-45 6 47 c3 25 0 69 -7 98 -11 44 -10 57 5 96 18 47 31 48 37 4 2 -17 10 -26
26 -28 24 -4 27 4 13 40 -4 13 -11 35 -15 51 -5 23 -3 27 16 27 13 0 30 5 38
10 8 5 22 10 31 10 14 0 15 -9 7 -62z"/>
<path d="M1761 1623 c-53 -45 -24 -133 43 -133 48 0 86 33 86 76 0 44 -29 74
-74 74 -19 0 -43 -8 -55 -17z m83 -32 c12 -13 15 -27 11 -41 -5 -17 -13 -21
-43 -18 -30 2 -38 7 -40 26 -7 48 40 69 72 33z"/>
<path d="M1634 1455 c-36 -55 17 -106 75 -74 28 16 36 38 27 75 -5 20 -12 24
-46 24 -31 0 -43 -5 -56 -25z m65 -9 c14 -17 4 -46 -15 -46 -18 0 -28 24 -20
45 7 19 20 19 35 1z"/>
<path d="M1413 1354 c-18 -8 -33 -17 -33 -21 0 -13 53 -63 67 -63 15 0 17 16
3 25 -15 9 -12 36 7 57 20 22 4 23 -44 2z"/>
</g>
</svg>
